<svg xmlns="http://www.w3.org/2000/svg" viewBox="0 0 703.31 217.09">
  <title>Intro</title>
  <g style="opacity: 0.039215686274509796">
    <g>
      <path d="M23.14,257.08V42.92H81.3V257.08Z" transform="translate(-23.14 -42.92)"/>
      <path d="M220,257.08V166.55q0-16.55-4.77-25t-15.3-8.43q-14.5,0-20.95,11.58t-6.45,39.69v72.66H115.22v-166h43.21l7.18,20.51H169A45.37,45.37,0,0,1,189.27,94q13-5.85,29.81-5.86,27.53,0,42.84,16t15.31,45v108Z" transform="translate(-23.14 -42.92)"/>
      <path d="M388.49,214.75q11.58,0,27.69-5.72v41.75a113.25,113.25,0,0,1-22.05,7.11A125.18,125.18,0,0,1,369.6,260q-28.86,0-41.6-14.14t-12.75-43.43V134H295.18V110.74l25.49-18,14.8-34.86H373V91.11h40.72V134H373v64.6Q373,214.76,388.49,214.75Z" transform="translate(-23.14 -42.92)"/>
      <path d="M536.38,88.18a83.06,83.06,0,0,1,14.21,1.18l3.22.58L548.68,144q-7-1.76-19.48-1.75-18.75,0-27.24,8.57t-8.5,24.68v81.59H436.18v-166h42.63l8.94,26.52h2.78a57.35,57.35,0,0,1,20-21.32Q523.35,88.18,536.38,88.18Z" transform="translate(-23.14 -42.92)"/>
      <path d="M726.45,173.73q0,40.72-21.9,63.5T643.25,260q-37.8,0-60.13-23.29t-22.34-63q0-40.57,21.9-63.06t61.45-22.49q24.45,0,43.21,10.4a71.11,71.11,0,0,1,28.93,29.81Q726.46,147.8,726.45,173.73Zm-107.52,0q0,21.39,5.71,32.59t19.19,11.21q13.33,0,18.83-11.21t5.49-32.59q0-21.24-5.57-32.08t-19-10.84q-13.18,0-18.9,10.77T618.93,173.73Z" transform="translate(-23.14 -42.92)"/>
    </g>
  </g>
</svg>
